<svg viewBox="0 0 66 66" xmlns="http://www.w3.org/2000/svg"><path d="M0 66h66V0H0z" fill="none" fill-rule="evenodd"></path><path d="M46.3 26.623c-.753 0-1.3-.672-1.3-1.5 0-5.776-3.947-11.904-10.534-11.904-6.245 0-12.474 3.919-12.474 11.904 0 .992.133 1.764.372 2.581.314 1.069 1.152 1.941 2.241 2.177 3.835.832 5.167 3.504 5.167 6.018 0 3.224-2.946 6.488-8.576 6.488a1.5 1.5 0 110-3c3.056 0 4.654-1.801 4.654-3.58a2.83 2.83 0 00-.949-2.122c-.517-.467-1.057-.766-2.213-.913-1.564-.198-2.884-1.273-3.35-2.778-.51-1.643-.838-3.474-.838-4.871 0-7.043 4.996-14.998 15.966-14.998 8.557 0 13.134 7.731 13.134 14.998 0 .828-.547 1.5-1.3 1.5M34.466 4C22.744 4 12 11.837 12 25.123c0 6.392 2.93 8.713 2.93 13.462s-1.953 6.007-1.953 12.272C12.977 57.123 17.861 61 24.324 61c10.142 0 11.44-10.446 18.33-17.394C49.543 36.66 54 34.47 54 25.123 54 13.682 46.186 4 34.466 4"></path></svg>