<svg viewBox="0 0 66 66" xmlns="http://www.w3.org/2000/svg"><path d="M0 66h66V0H0z" fill="none" fill-rule="evenodd"></path><path d="M56.7 31.9C60 10.27 42 5.46 33 5.46S6 10.27 9.3 31.9c0 0-4.3-3.4-2.3 4.6 1.71 6.86 4.39 5.78 4.39 5.78s1 5.77 2.27 7.22c4 4.52 14.34 11 19.34 11s15.37-6.5 19.34-11c1.27-1.45 2.27-7.22 2.27-7.22s2.68 1.08 4.39-5.78c2-8-2.3-4.6-2.3-4.6zM16.75 41a2 2 0 110-4 2 2 0 010 4zm5.75-4.5a2 2 0 110-4 2 2 0 010 4zm4 6a2 2 0 110-4 2 2 0 010 4zm13 0a2 2 0 110-4 2 2 0 010 4zm4-6a2 2 0 110-4 2 2 0 010 4zm3.26-18a1 1 0 01-1.19.6 29.24 29.24 0 00-5.5-1 7 7 0 00-2.53.79A10.88 10.88 0 0133 20.1a10.88 10.88 0 01-4.54-1.21 7 7 0 00-2.53-.79 29.07 29.07 0 00-5.5 1 1 1 0 01-.73-1.85c.4-.21 4-2.12 6.23-2.12a8.35 8.35 0 013.33 1 9.32 9.32 0 003.74 1 9.32 9.32 0 003.74-1 8.35 8.35 0 013.33-1c2.26 0 5.83 1.91 6.23 2.12a1 1 0 01.46 1.22zM49.25 41a2 2 0 110-4 2 2 0 010 4z"></path></svg>