<svg viewBox="0 0 66 66" xmlns="http://www.w3.org/2000/svg"><path d="M0 66h66V0H0z" fill="none" fill-rule="evenodd"></path><path d="M10.675 26.326s-3.105-6.21.818-9.62c.688-.597 1.792-.08 1.682.824-.316 2.604 1.231 4.094 1.231 4.094s3.545-8.593 15.709-8.593c9.852 0 9.158 1.202 14.429 1.202 4.701 0 7.971-1.976 9.386-3.035a.987.987 0 011.435.272c.883 1.447 2.355 3.514 2.355 8.513 0 6.173-3.368 10.037-3.368 10.037s4.749 3.463 4.749 10.088c0 1.957-1.648 7.213-.926 13.777a.999.999 0 01-.508.993c-.613.331-1.475.503-2.11.59a.987.987 0 01-1.098-.74c-.256-1.039-.612-3.167-.612-6.965 0-7.21-1.38-13.238-6.904-13.238 0 0-14.01 10.603-28.559.75 0 0-6.757-1.493-6.757 11.555 0 4.824-.108 7.046-.208 8.071a.992.992 0 01-1.001.894c-.743-.01-1.811-.084-2.472-.409-.376-.185-.563-.606-.502-1.02C8.206 49.206 6 42.138 6 38.357c0-7.813 3.761-7.87 3.761-7.87s-2.46-1.163-3.51-4.85c-.276-.967.866-1.728 1.612-1.055 1.497 1.348 2.812 1.743 2.812 1.743"></path></svg>