<svg viewBox="0 0 66 66" xmlns="http://www.w3.org/2000/svg"><path d="M0 66h66V0H0z" fill="none" fill-rule="evenodd"></path><path d="M24 28c-3.23 0-13.25 4.84-16 4.66s-3.17-3.65-3.17-3.65C5 24.7 15.69 9.38 22.86 9.38c4.6 0 6.2 4.29 10.14 4.29s5.54-4.3 10.14-4.29c7.17 0 17.85 15.32 18 19.67 0 0-.38 3.48-3.17 3.65S45.21 28 42 28s-6.32 3-9 3-5.75-3-9-3zm9 28.58c15.57 0 23.19-12.55 25.84-18.2a2 2 0 00-1.63-2.82c-3.54-.35-8.67-1.21-11.3-1.06-3.36.2-8.54 4.35-12.91 4.35s-9.55-4.15-12.91-4.35c-2.63-.15-7.76.71-11.3 1.06a2 2 0 00-1.63 2.82C9.81 44.07 17.43 56.62 33 56.62z"></path></svg>