<svg viewBox="0 0 66 66" xmlns="http://www.w3.org/2000/svg"><path d="M0 66h66V0H0z" fill="none" fill-rule="evenodd"></path><path d="M12.06 30.925a1.842 1.842 0 01-1.657-1.024 1.002 1.002 0 01-.105-.447c0-5.555 4.887-11.66 6.771-13.544a.999.999 0 111.414 1.414c-1.394 1.394-4.66 7.203-4.66 12.13 0 .155-.037.309-.106.447a1.842 1.842 0 01-1.657 1.024zm7.621 10.813c-6.75 0-12.242-5.492-12.242-12.242 0-6.423 5.308-11.72 9.573-15.976.991-.988 1.891-1.886 2.67-2.74.777.854 1.677 1.752 2.668 2.74 4.265 4.256 9.573 9.553 9.573 15.976 0 6.75-5.492 12.242-12.242 12.242zm37.237-9.187C59.926 12.575 43.342 8.133 35.03 8.133c-3.116 0-7.394.624-11.367 2.457-1.672-1.68-3.04-3.13-3.646-4.356-.069-.14-.202-.21-.336-.21s-.268.07-.336.21C17.106 10.774 4.44 18.34 4.44 29.496c0 6.897 4.67 12.796 11.044 14.637.38 1.659.99 3.873 1.69 4.67C20.84 52.984 30.413 59 35.03 59c4.618 0 14.192-6.017 17.858-10.196 1.173-1.338 2.1-6.666 2.1-6.666s2.47.995 4.052-5.34c1.847-7.387-2.122-4.247-2.122-4.247z"></path></svg>